<svg width="26" height="26" viewBox="0 0 26 26" fill="none" xmlns="http://www.w3.org/2000/svg">
<path d="M6.58557 24.375C6.58595 23.9442 6.7574 23.5311 7.06224 23.2267L15.3736 14.9153C15.6251 14.6638 15.8247 14.3652 15.9608 14.0366C16.097 13.708 16.1671 13.3557 16.1671 13C16.1671 12.6443 16.097 12.292 15.9608 11.9634C15.8247 11.6348 15.6251 11.3362 15.3736 11.0847L7.07307 2.77875C6.77706 2.47227 6.61327 2.06179 6.61698 1.63572C6.62068 1.20965 6.79158 0.802081 7.09287 0.500793C7.39415 0.199505 7.80172 0.0286052 8.22779 0.0249027C8.65386 0.0212003 9.06434 0.184991 9.37082 0.480998L17.6713 8.78041C18.7874 9.8987 19.4142 11.4141 19.4142 12.994C19.4142 14.574 18.7874 16.0894 17.6713 17.2077L9.35999 25.519C9.13305 25.7461 8.84393 25.9009 8.52912 25.9638C8.21431 26.0267 7.88791 25.995 7.59111 25.8726C7.29431 25.7502 7.04041 25.5427 6.86145 25.2761C6.68249 25.0096 6.58649 24.696 6.58557 24.375Z" fill="white"/>
</svg>
