<svg width="25" height="25" viewBox="0 0 25 25" fill="none" xmlns="http://www.w3.org/2000/svg">
<g clip-path="url(#clip0_31_674)">
<path d="M23.9582 11.4583C23.6819 11.4583 23.4169 11.3486 23.2216 11.1532C23.0262 10.9579 22.9165 10.6929 22.9165 10.4167C22.9143 8.20721 22.0356 6.08887 20.4733 4.52655C18.9109 2.96422 16.7926 2.08554 14.5832 2.08334C14.3069 2.08334 14.0419 1.97359 13.8466 1.77824C13.6512 1.58289 13.5415 1.31794 13.5415 1.04167C13.5415 0.765401 13.6512 0.500449 13.8466 0.305099C14.0419 0.109749 14.3069 1.93028e-06 14.5832 1.93028e-06C17.3449 0.00303484 19.9927 1.10148 21.9455 3.05432C23.8983 5.00717 24.9968 7.65493 24.9998 10.4167C24.9998 10.6929 24.8901 10.9579 24.6947 11.1532C24.4994 11.3486 24.2344 11.4583 23.9582 11.4583ZM20.8332 10.4167C20.8332 8.75907 20.1747 7.16935 19.0026 5.99725C17.8305 4.82515 16.2408 4.16667 14.5832 4.16667C14.3069 4.16667 14.0419 4.27642 13.8466 4.47177C13.6512 4.66712 13.5415 4.93207 13.5415 5.20834C13.5415 5.4846 13.6512 5.74955 13.8466 5.9449C14.0419 6.14026 14.3069 6.25 14.5832 6.25C15.6882 6.25 16.748 6.68899 17.5294 7.47039C18.3108 8.25179 18.7498 9.3116 18.7498 10.4167C18.7498 10.6929 18.8596 10.9579 19.0549 11.1532C19.2503 11.3486 19.5152 11.4583 19.7915 11.4583C20.0678 11.4583 20.3327 11.3486 20.5281 11.1532C20.7234 10.9579 20.8332 10.6929 20.8332 10.4167ZM23.1071 23.0875L24.055 21.9948C24.6584 21.3895 24.9972 20.5697 24.9972 19.7151C24.9972 18.8605 24.6584 18.0407 24.055 17.4354C24.0227 17.4031 21.5165 15.475 21.5165 15.475C20.915 14.9024 20.116 14.5836 19.2855 14.5848C18.4551 14.5859 17.657 14.907 17.0571 15.4813L15.0717 17.1542C13.451 16.4834 11.9789 15.4991 10.7397 14.2578C9.50053 13.0165 8.51879 11.5426 7.85086 9.92084L9.51753 7.94167C10.0922 7.34185 10.4137 6.54362 10.415 5.71292C10.4164 4.88222 10.0976 4.08295 9.52482 3.48125C9.52482 3.48125 7.59461 0.978127 7.56232 0.945835C6.968 0.347656 6.1622 0.00731653 5.31902 -0.00164934C4.47583 -0.0106152 3.66298 0.312513 3.05607 0.897919L1.85815 1.93959C-5.21893 10.15 10.0207 25.2719 18.5019 25C19.3583 25.005 20.2071 24.8383 20.9981 24.5098C21.789 24.1813 22.5061 23.6977 23.1071 23.0875Z" fill="black"/>
</g>
<defs>
<clipPath id="clip0_31_674">
<rect width="25" height="25" fill="white"/>
</clipPath>
</defs>
</svg>
