<svg width="26" height="26" viewBox="0 0 26 26" fill="none" xmlns="http://www.w3.org/2000/svg">
<g clip-path="url(#clip0_31_686)">
<path d="M25.9502 6.00383L16.8307 15.1233C15.8138 16.1376 14.4362 16.7072 13 16.7072C11.5638 16.7072 10.1862 16.1376 9.16933 15.1233L0.0498333 6.00383C0.0346667 6.175 0 6.32991 0 6.5V19.5C0.00172018 20.9361 0.572955 22.3128 1.5884 23.3283C2.60385 24.3437 3.98061 24.9149 5.41667 24.9167H20.5833C22.0194 24.9149 23.3961 24.3437 24.4116 23.3283C25.427 22.3128 25.9983 20.9361 26 19.5V6.5C26 6.32991 25.9653 6.175 25.9502 6.00383Z" fill="black"/>
<path d="M15.299 13.5915L25.1942 3.69525C24.7148 2.90042 24.0387 2.24254 23.2311 1.78504C22.4235 1.32754 21.5117 1.08586 20.5835 1.08333H5.41682C4.48864 1.08586 3.57678 1.32754 2.76918 1.78504C1.96158 2.24254 1.2855 2.90042 0.806152 3.69525L10.7013 13.5915C11.3119 14.1996 12.1385 14.541 13.0002 14.541C13.8619 14.541 14.6884 14.1996 15.299 13.5915Z" fill="black"/>
</g>
<defs>
<clipPath id="clip0_31_686">
<rect width="26" height="26" fill="white"/>
</clipPath>
</defs>
</svg>
